
        <svg xmlns="http://www.w3.org/2000/svg" xmlns:xlink="http://www.w3.org/1999/xlink" version="1.1" width="3171.4285714285716" 
        height="1962.1606174959006" viewBox="0 0 3171.4285714285716 1962.1606174959006">
			<rect fill="#303841" width="3171.4285714285716" height="1962.1606174959006"/>
			<g transform="scale(8.571428571428571) translate(10, 10)">
				<defs id="SvgjsDefs3312"></defs><g id="SvgjsG3313" featureKey="symbolFeature-0" transform="matrix(2.3333333333333335,0,0,2.3333333333333335,100.33333333333333,-5.348000129063925)" fill="#ffffff"><g xmlns="http://www.w3.org/2000/svg"><path d="M9,24a3,3,0,1,0-3-3A3,3,0,0,0,9,24Zm0-4a1,1,0,1,1-1,1A1,1,0,0,1,9,20Z"></path><path d="M55,24a3,3,0,1,0-3-3A3,3,0,0,0,55,24Zm0-4a1,1,0,1,1-1,1A1,1,0,0,1,55,20Z"></path><path d="M12,33a3,3,0,1,0-3,3A3,3,0,0,0,12,33ZM8,33a1,1,0,1,1,1,1A1,1,0,0,1,8,33Z"></path><path d="M8,26v2a1,1,0,0,0,2,0V26a1,1,0,0,0-2,0Z"></path><path d="M61,14H49a1,1,0,0,0-1,1V39a1,1,0,0,0,1,1h3v5H45V42a1,1,0,0,0-1-1H41V38a1,1,0,0,0-1-1H34a1,1,0,0,0-1,1v3H31V38a1,1,0,0,0-1-1H24a1,1,0,0,0-1,1v3H20a1,1,0,0,0-1,1v3H12V40h3a1,1,0,0,0,1-1V15a1,1,0,0,0-1-1H3a1,1,0,0,0-1,1V39a1,1,0,0,0,1,1H6v5H3a1,1,0,0,0-1,1v6a1,1,0,0,0,1,1v8a1,1,0,0,0,1,1H60a1,1,0,0,0,1-1V53a1,1,0,0,0,1-1V46a1,1,0,0,0-1-1H58V40h3a1,1,0,0,0,1-1V15A1,1,0,0,0,61,14ZM35,39h4v2H35ZM25,39h4v2H25Zm-4,4H43v2H21ZM4,16H14V38H4ZM8,40h2v5H8ZM59,60H5V53H59Zm1-9H4V47H60Zm-4-6H54V40h2Zm4-7H50V16H60Z"></path><path d="M55,36a3,3,0,1,0-3-3A3,3,0,0,0,55,36Zm0-4a1,1,0,1,1-1,1A1,1,0,0,1,55,32Z"></path><path d="M54,26v2a1,1,0,0,0,2,0V26a1,1,0,0,0-2,0Z"></path><path d="M18.828,4.172a4.1,4.1,0,0,0-4.841-.6l-1.28-1.28L11.293,3.707l1.272,1.272a3.957,3.957,0,0,0,.607,4.849l2.121,2.121a1,1,0,0,0,1.414,0L20.95,7.707a1,1,0,0,0,0-1.414ZM16,9.828,14.586,8.414a2,2,0,1,1,2.828-2.828L18.828,7Z"></path><path d="M49.536,2.293l-1.281,1.28a4.1,4.1,0,0,0-4.841.6L41.293,6.293a1,1,0,0,0,0,1.414l4.243,4.242a1,1,0,0,0,1.414,0l2.121-2.121a3.957,3.957,0,0,0,.607-4.849L50.95,3.707ZM47.657,8.414,46.243,9.828,43.414,7l1.414-1.414a2.048,2.048,0,0,1,2.829,0,2,2,0,0,1,0,2.828Z"></path><rect x="20.5" y="14.594" width="2" height="15.811" transform="translate(-6.012 7.954) rotate(-18.435)"></rect><rect x="26.5" y="6.352" width="2" height="10.296" transform="translate(4.092 29.954) rotate(-60.945)"></rect><rect x="34.394" y="10" width="7.211" height="2" transform="translate(0.28 22.926) rotate(-33.69)"></rect><rect x="35.536" y="21.5" width="13.928" height="2.001" transform="translate(6.234 54.08) rotate(-68.946)"></rect><rect x="33.595" y="19" width="7.81" height="2" transform="translate(-1.871 36.005) rotate(-50.194)"></rect><rect x="27" y="18.469" width="2" height="8.062" transform="translate(-7.474 16.856) rotate(-29.745)"></rect></g></g><g id="SvgjsG3314" featureKey="nameFeature-0" transform="matrix(1.5286176298709542,0,0,1.5286176298709542,-1.1047875395697817,146.8782658210985)" fill="#ffffff"><path d="M12.266 29.59 l5.5664 0 l-2.7734 -6.543 z M9.6875 35.1562 l-0.039063 -0.019531 c-0.70313 1.6016 -1.4258 3.1836 -2.1484 4.7852 l-6.7773 0 l14.277 -31.992 l14.316 31.992 l-6.7969 0 c-0.70313 -1.582 -1.4063 -3.1836 -2.1094 -4.7656 l-10.723 0 z M48.1441875 8.515999999999998 l6.3477 0 l0 12.656 l0 6.3281 c0 3.4961 -1.2305 6.4844 -3.7109 8.9648 s-5.4688 3.7109 -8.9453 3.7109 c-3.4961 0 -6.4844 -1.2305 -8.9648 -3.7109 s-3.7109 -5.4688 -3.7109 -8.9648 l0 -6.3281 l0 -12.656 l6.3477 0 l0 12.656 l0 5.6641 l0 0.64453 c0 1.7383 0.625 3.2227 1.8555 4.4531 s2.7148 1.8555 4.4531 1.8555 c1.7188 0 3.2031 -0.625 4.4531 -1.8555 s1.875 -2.7148 1.875 -4.4531 l0 -0.64453 l0 -5.6641 l0 -12.656 z M57.59765625 40 l-0.019531 -31.523 l10.234 0 c3.0273 0 6.0156 1.0547 8.1836 3.2227 s3.0469 4.1992 3.0469 7.2266 l0 0.97656 c0 2.3438 -0.66406 4.0625 -1.9922 5.9375 s-2.4414 2.4219 -4.5117 3.2031 l7.1094 10.957 l-7.6953 0 l-8.0469 -12.305 l0 12.305 l-6.3086 0 z M63.88675625 23.633 l4.5117 0.019531 c1.3086 0 1.9727 -0.33203 2.8906 -1.25 s1.25 -1.9727 1.25 -3.2813 c0 -1.2891 -0.33203 -2.1484 -1.25 -3.0859 s-2.5586 -1.2695 -3.8672 -1.2695 l-3.5352 0 l0 8.8672 z M93.281625 29.59 l5.5664 0 l-2.7734 -6.543 z M90.703125 35.1562 l-0.039063 -0.019531 c-0.70313 1.6016 -1.4258 3.1836 -2.1484 4.7852 l-6.7773 0 l14.277 -31.992 l14.316 31.992 l-6.7969 0 c-0.70313 -1.582 -1.4063 -3.1836 -2.1094 -4.7656 l-10.723 0 z M112.734375 8.515999999999998 l6.3086 0 l0 25.176 l12.578 0 l0 6.3086 l-18.887 0 l0 -31.484 z M137.14846875 8.515999999999998 l6.3086 0 l7.8711 0 l0 6.2891 l-7.8711 0 l0 25.195 l-6.3086 0 l0 -25.195 l-7.8711 0 l0 -6.2891 l7.8711 0 z M173.027 8.515999999999998 l6.3477 0 l0 12.656 l0 6.3281 c0 3.4961 -1.2305 6.4844 -3.7109 8.9648 s-5.4688 3.7109 -8.9453 3.7109 c-3.4961 0 -6.4844 -1.2305 -8.9648 -3.7109 s-3.7109 -5.4688 -3.7109 -8.9648 l0 -6.3281 l0 -12.656 l6.3477 0 l0 12.656 l0 5.6641 l0 0.64453 c0 1.7383 0.625 3.2227 1.8555 4.4531 s2.7148 1.8555 4.4531 1.8555 c1.7188 0 3.2031 -0.625 4.4531 -1.8555 s1.875 -2.7148 1.875 -4.4531 l0 -0.64453 l0 -5.6641 l0 -12.656 z M182.48046875 7.93 l18.887 17.988 l0 -17.402 l6.3086 0 l0 32.07 l-18.887 -18.008 l0 17.422 l-6.3086 0 l0 -32.07 z M210.80078125 8.515999999999998 l18.887 0 l0 6.2891 l-12.578 0 l0 6.3086 l9.4336 0 l0 6.2891 l-9.4336 0 l0 6.2891 l12.578 0 l0 6.3086 l-12.578 0 l-6.3086 0 l0 -31.484 z"></path></g>
			</g>
		</svg>
	